Bench12-Cond-Light-IN.ufo
<glyph name="plus" format="1">
  <advance width="513"/>
  <unicode hex="002B"/>
  <outline>
    <contour>
      <point x="227" y="20" type="curve" smooth="yes"/>
      <point x="286" y="20" type="line" smooth="yes"/>
      <point x="301" y="20"/>
      <point x="312" y="54"/>
      <point x="312" y="97" type="curve" smooth="yes"/>
      <point x="312" y="360" type="line" smooth="yes"/>
      <point x="312" y="380"/>
      <point x="319" y="397"/>
      <point x="325" y="397" type="curve" smooth="yes"/>
      <point x="407" y="397" type="line" smooth="yes"/>
      <point x="421" y="397"/>
      <point x="432" y="431"/>
      <point x="432" y="474" type="curve" smooth="yes"/>
      <point x="432" y="625" type="line" smooth="yes"/>
      <point x="432" y="668"/>
      <point x="421" y="702"/>
      <point x="407" y="702" type="curve" smooth="yes"/>
      <point x="325" y="702" type="line" smooth="yes"/>
      <point x="319" y="702"/>
      <point x="312" y="719"/>
      <point x="312" y="739" type="curve" smooth="yes"/>
      <point x="312" y="1002" type="line" smooth="yes"/>
      <point x="312" y="1045"/>
      <point x="301" y="1079"/>
      <point x="286" y="1079" type="curve" smooth="yes"/>
      <point x="227" y="1079" type="line" smooth="yes"/>
      <point x="213" y="1079"/>
      <point x="201" y="1045"/>
      <point x="201" y="1002" type="curve" smooth="yes"/>
      <point x="201" y="739" type="line" smooth="yes"/>
      <point x="201" y="719"/>
      <point x="194" y="702"/>
      <point x="188" y="702" type="curve" smooth="yes"/>
      <point x="105" y="702" type="line" smooth="yes"/>
      <point x="90" y="702"/>
      <point x="79" y="668"/>
      <point x="79" y="625" type="curve" smooth="yes"/>
      <point x="79" y="474" type="line" smooth="yes"/>
      <point x="79" y="431"/>
      <point x="90" y="397"/>
      <point x="105" y="397" type="curve" smooth="yes"/>
      <point x="188" y="397" type="line" smooth="yes"/>
      <point x="194" y="397"/>
      <point x="201" y="380"/>
      <point x="201" y="360" type="curve" smooth="yes"/>
      <point x="201" y="97" type="line" smooth="yes"/>
      <point x="201" y="54"/>
      <point x="213" y="20"/>
    </contour>
  </outline>
</glyph>
<glyph name="hyphen" format="1">
  <advance width="359"/>
  <unicode hex="002D"/>
  <outline>
    <contour>
      <point x="101" y="484" type="curve" smooth="yes"/>
      <point x="255" y="484" type="line" smooth="yes"/>
      <point x="269" y="484"/>
      <point x="279" y="498"/>
      <point x="279" y="541" type="curve" smooth="yes"/>
      <point x="279" y="602" type="line" smooth="yes"/>
      <point x="279" y="645"/>
      <point x="269" y="659"/>
      <point x="255" y="659" type="curve" smooth="yes"/>
      <point x="101" y="659" type="line" smooth="yes"/>
      <point x="85" y="659"/>
      <point x="78" y="645"/>
      <point x="78" y="602" type="curve" smooth="yes"/>
      <point x="78" y="541" type="line" smooth="yes"/>
      <point x="78" y="498"/>
      <point x="85" y="484"/>
    </contour>
  </outline>
</glyph>
<glyph name="three" format="1">
  <advance width="789"/>
  <unicode hex="0033"/>
  <outline>
    <contour>
      <point x="398" y="-41" type="curve" smooth="yes"/>
      <point x="554" y="-41"/>
      <point x="694" y="55"/>
      <point x="694" y="375" type="curve" smooth="yes"/>
      <point x="694" y="575"/>
      <point x="644" y="690"/>
      <point x="579" y="727" type="curve"/>
      <point x="643" y="760"/>
      <point x="687" y="863"/>
      <point x="687" y="1063" type="curve" smooth="yes"/>
      <point x="687" y="1383"/>
      <point x="554" y="1475"/>
      <point x="398" y="1475" type="curve" smooth="yes"/>
      <point x="274" y="1475"/>
      <point x="166" y="1436"/>
      <point x="88" y="1082" type="curve"/>
      <point x="93" y="1043" type="line"/>
      <point x="149" y="1017" type="line"/>
      <point x="163" y="1027"/>
      <point x="164" y="1040"/>
      <point x="167" y="1054" type="curve" smooth="yes"/>
      <point x="214" y="1265"/>
      <point x="299" y="1299"/>
      <point x="398" y="1299" type="curve" smooth="yes"/>
      <point x="530" y="1299"/>
      <point x="608" y="1254"/>
      <point x="608" y="1053" type="curve" smooth="yes"/>
      <point x="608" y="836"/>
      <point x="536" y="815"/>
      <point x="368" y="815" type="curve" smooth="yes"/>
      <point x="361" y="815"/>
      <point x="357" y="808"/>
      <point x="355" y="791" type="curve"/>
      <point x="355" y="790"/>
      <point x="355" y="789"/>
      <point x="355" y="788" type="curve" smooth="yes"/>
      <point x="355" y="787" type="line"/>
      <point x="354" y="780"/>
      <point x="352" y="771"/>
      <point x="352" y="761" type="curve" smooth="yes"/>
      <point x="352" y="694" type="line" smooth="yes"/>
      <point x="352" y="690"/>
      <point x="352" y="687"/>
      <point x="352" y="684" type="curve" smooth="yes"/>
      <point x="352" y="683"/>
      <point x="352" y="683"/>
      <point x="352" y="682" type="curve"/>
      <point x="354" y="681"/>
      <point x="354" y="681"/>
      <point x="354" y="680" type="curve" smooth="yes"/>
      <point x="355" y="651"/>
      <point x="360" y="639"/>
      <point x="368" y="639" type="curve" smooth="yes"/>
      <point x="530" y="639"/>
      <point x="617" y="657"/>
      <point x="617" y="390" type="curve" smooth="yes"/>
      <point x="617" y="209"/>
      <point x="530" y="135"/>
      <point x="398" y="135" type="curve" smooth="yes"/>
      <point x="299" y="135"/>
      <point x="237" y="169"/>
      <point x="174" y="361" type="curve"/>
      <point x="169" y="373"/>
      <point x="168" y="387"/>
      <point x="155" y="397" type="curve"/>
      <point x="100" y="371" type="line"/>
      <point x="94" y="333" type="line"/>
      <point x="179" y="19"/>
      <point x="274" y="-41"/>
    </contour>
  </outline>
</glyph>
<glyph name="six" format="1">
  <advance width="726"/>
  <unicode hex="0036"/>
  <outline>
    <contour>
      <point x="356" y="-42" type="curve" smooth="yes"/>
      <point x="514" y="-42"/>
      <point x="636" y="61"/>
      <point x="636" y="426" type="curve" smooth="yes"/>
      <point x="636" y="683"/>
      <point x="580" y="896"/>
      <point x="372" y="896" type="curve" smooth="yes"/>
      <point x="318" y="896"/>
      <point x="251" y="881"/>
      <point x="171" y="847" type="curve"/>
      <point x="171" y="910" type="line" smooth="yes"/>
      <point x="171" y="1152"/>
      <point x="226" y="1295"/>
      <point x="372" y="1295" type="curve" smooth="yes"/>
      <point x="432" y="1295"/>
      <point x="525" y="1245"/>
      <point x="553" y="1206" type="curve"/>
      <point x="555" y="1204"/>
      <point x="558" y="1203"/>
      <point x="560" y="1203" type="curve" smooth="yes"/>
      <point x="564" y="1203"/>
      <point x="568" y="1211"/>
      <point x="570" y="1229" type="curve" smooth="yes"/>
      <point x="581" y="1324" type="line"/>
      <point x="582" y="1329"/>
      <point x="583" y="1334"/>
      <point x="583" y="1339" type="curve" smooth="yes"/>
      <point x="583" y="1357"/>
      <point x="579" y="1370"/>
      <point x="574" y="1377" type="curve"/>
      <point x="532" y="1425"/>
      <point x="442" y="1472"/>
      <point x="379" y="1472" type="curve" smooth="yes"/>
      <point x="186" y="1472"/>
      <point x="90" y="1295"/>
      <point x="90" y="736" type="curve" smooth="yes"/>
      <point x="90" y="292"/>
      <point x="134" y="-42"/>
    </contour>
    <contour>
      <point x="356" y="134" type="curve" smooth="yes"/>
      <point x="225" y="134"/>
      <point x="168" y="287"/>
      <point x="168" y="555" type="curve" smooth="yes"/>
      <point x="168" y="686" type="line"/>
      <point x="253" y="720"/>
      <point x="319" y="735"/>
      <point x="370" y="735" type="curve" smooth="yes"/>
      <point x="523" y="735"/>
      <point x="558" y="606"/>
      <point x="558" y="434" type="curve" smooth="yes"/>
      <point x="558" y="190"/>
      <point x="489" y="134"/>
    </contour>
  </outline>
</glyph>
<glyph name="eight" format="1">
  <advance width="745"/>
  <unicode hex="0038"/>
  <outline>
    <contour>
      <point x="372" y="-41" type="curve" smooth="yes"/>
      <point x="530" y="-41"/>
      <point x="652" y="-35"/>
      <point x="652" y="387" type="curve" smooth="yes"/>
      <point x="652" y="545"/>
      <point x="604" y="663"/>
      <point x="547" y="699" type="curve"/>
      <point x="584" y="737"/>
      <point x="618" y="879"/>
      <point x="618" y="1029" type="curve" smooth="yes"/>
      <point x="618" y="1411"/>
      <point x="530" y="1473"/>
      <point x="372" y="1473" type="curve" smooth="yes"/>
      <point x="216" y="1473"/>
      <point x="120" y="1398"/>
      <point x="120" y="1059" type="curve" smooth="yes"/>
      <point x="120" y="909"/>
      <point x="155" y="795"/>
      <point x="181" y="752" type="curve"/>
      <point x="139" y="695"/>
      <point x="93" y="561"/>
      <point x="93" y="403" type="curve" smooth="yes"/>
      <point x="93" y="-42"/>
      <point x="216" y="-41"/>
    </contour>
    <contour>
      <point x="372" y="135" type="curve" smooth="yes"/>
      <point x="240" y="135"/>
      <point x="170" y="135"/>
      <point x="170" y="403" type="curve" smooth="yes"/>
      <point x="170" y="498"/>
      <point x="190" y="613"/>
      <point x="235" y="687" type="curve"/>
      <point x="505" y="588"/>
      <point x="573" y="634"/>
      <point x="573" y="403" type="curve" smooth="yes"/>
      <point x="573" y="135"/>
      <point x="505" y="135"/>
    </contour>
    <contour>
      <point x="492" y="761" type="curve"/>
      <point x="197" y="857"/>
      <point x="198" y="832"/>
      <point x="198" y="1029" type="curve" smooth="yes"/>
      <point x="198" y="1271"/>
      <point x="247" y="1297"/>
      <point x="372" y="1297" type="curve" smooth="yes"/>
      <point x="485" y="1297"/>
      <point x="546" y="1295"/>
      <point x="546" y="1025" type="curve" smooth="yes"/>
      <point x="546" y="887"/>
      <point x="512" y="812"/>
    </contour>
  </outline>
</glyph>
<glyph name="C" format="1">
  <advance width="671"/>
  <unicode hex="0043"/>
  <outline>
    <contour>
      <point x="431" y="-21" type="curve" smooth="yes"/>
      <point x="462" y="-21"/>
      <point x="519" y="-17"/>
      <point x="562" y="-2" type="curve"/>
      <point x="562" y="63" type="line"/>
      <point x="529" y="52"/>
      <point x="468" y="44"/>
      <point x="432" y="44" type="curve" smooth="yes"/>
      <point x="285" y="44"/>
      <point x="167" y="120"/>
      <point x="167" y="721" type="curve" smooth="yes"/>
      <point x="167" y="1317"/>
      <point x="309" y="1392"/>
      <point x="452" y="1392" type="curve" smooth="yes"/>
      <point x="523" y="1392"/>
      <point x="582" y="1367"/>
      <point x="584" y="1367" type="curve" smooth="yes"/>
      <point x="588" y="1367"/>
      <point x="591" y="1368"/>
      <point x="591" y="1376" type="curve" smooth="yes"/>
      <point x="591" y="1417" type="line" smooth="yes"/>
      <point x="591" y="1426"/>
      <point x="583" y="1430"/>
      <point x="579" y="1432" type="curve"/>
      <point x="553" y="1443"/>
      <point x="505" y="1455"/>
      <point x="443" y="1455" type="curve" smooth="yes"/>
      <point x="272" y="1455"/>
      <point x="89" y="1383"/>
      <point x="89" y="721" type="curve" smooth="yes"/>
      <point x="89" y="22"/>
      <point x="276" y="-21"/>
    </contour>
  </outline>
</glyph>
<glyph name="H" format="1">
  <advance width="791"/>
  <unicode hex="0048"/>
  <outline>
    <contour>
      <point x="127" y="0" type="curve" smooth="yes"/>
      <point x="158" y="0" type="line" smooth="yes"/>
      <point x="172" y="0"/>
      <point x="181" y="4"/>
      <point x="181" y="47" type="curve" smooth="yes"/>
      <point x="181" y="681" type="line"/>
      <point x="186" y="697" type="line"/>
      <point x="604" y="697" type="line"/>
      <point x="610" y="679" type="line"/>
      <point x="610" y="47" type="line" smooth="yes"/>
      <point x="610" y="4"/>
      <point x="619" y="0"/>
      <point x="634" y="0" type="curve" smooth="yes"/>
      <point x="666" y="0" type="line" smooth="yes"/>
      <point x="680" y="0"/>
      <point x="688" y="4"/>
      <point x="688" y="47" type="curve" smooth="yes"/>
      <point x="688" y="1391" type="line" smooth="yes"/>
      <point x="688" y="1434"/>
      <point x="680" y="1438"/>
      <point x="666" y="1438" type="curve" smooth="yes"/>
      <point x="634" y="1438" type="line" smooth="yes"/>
      <point x="619" y="1438"/>
      <point x="610" y="1434"/>
      <point x="610" y="1391" type="curve" smooth="yes"/>
      <point x="610" y="783" type="line"/>
      <point x="603" y="765" type="line"/>
      <point x="185" y="765" type="line"/>
      <point x="181" y="780" type="line"/>
      <point x="181" y="1391" type="line" smooth="yes"/>
      <point x="181" y="1434"/>
      <point x="172" y="1438"/>
      <point x="158" y="1438" type="curve" smooth="yes"/>
      <point x="127" y="1438" type="line" smooth="yes"/>
      <point x="111" y="1438"/>
      <point x="103" y="1434"/>
      <point x="103" y="1391" type="curve" smooth="yes"/>
      <point x="103" y="47" type="line" smooth="yes"/>
      <point x="103" y="4"/>
      <point x="111" y="0"/>
    </contour>
  </outline>
</glyph>
<glyph name="Q" format="1">
  <advance width="288"/>
  <unicode hex="0051"/>
  <outline>
    <contour>
      <point x="202" y="-345" type="curve" smooth="yes"/>
      <point x="217" y="-335" type="line" smooth="yes"/>
      <point x="241" y="-319"/>
      <point x="235" y="-316"/>
      <point x="226" y="-282" type="curve" smooth="yes"/>
      <point x="150" y="12" type="line" smooth="yes"/>
      <point x="141" y="46"/>
      <point x="70" y="34"/>
      <point x="79" y="0" type="curve" smooth="yes"/>
      <point x="162" y="-312" type="line" smooth="yes"/>
      <point x="171" y="-346"/>
      <point x="178" y="-361"/>
    </contour>
    <component base="O"/>
  </outline>
</glyph>
<glyph name="U" format="1">
  <advance width="892"/>
  <unicode hex="0055"/>
  <outline>
    <contour>
      <point x="446" y="-21" type="curve" smooth="yes"/>
      <point x="640" y="-21"/>
      <point x="793" y="29"/>
      <point x="793" y="648" type="curve" smooth="yes"/>
      <point x="793" y="1391" type="line" smooth="yes"/>
      <point x="793" y="1434"/>
      <point x="785" y="1438"/>
      <point x="771" y="1438" type="curve" smooth="yes"/>
      <point x="738" y="1438" type="line" smooth="yes"/>
      <point x="723" y="1438"/>
      <point x="715" y="1434"/>
      <point x="715" y="1391" type="curve" smooth="yes"/>
      <point x="715" y="648" type="line" smooth="yes"/>
      <point x="715" y="99"/>
      <point x="609" y="43"/>
      <point x="445" y="43" type="curve" smooth="yes"/>
      <point x="284" y="43"/>
      <point x="177" y="86"/>
      <point x="177" y="648" type="curve" smooth="yes"/>
      <point x="177" y="1391" type="line" smooth="yes"/>
      <point x="177" y="1434"/>
      <point x="168" y="1438"/>
      <point x="154" y="1438" type="curve" smooth="yes"/>
      <point x="122" y="1438" type="line" smooth="yes"/>
      <point x="107" y="1438"/>
      <point x="99" y="1434"/>
      <point x="99" y="1391" type="curve" smooth="yes"/>
      <point x="99" y="648" type="line" smooth="yes"/>
      <point x="99" y="29"/>
      <point x="249" y="-21"/>
    </contour>
  </outline>
</glyph>
<glyph name="Y" format="1">
  <advance width="645"/>
  <unicode hex="0059"/>
  <outline>
    <contour>
      <point x="307" y="0" type="curve" smooth="yes"/>
      <point x="339" y="0" type="line" smooth="yes"/>
      <point x="354" y="0"/>
      <point x="361" y="24"/>
      <point x="361" y="67" type="curve" smooth="yes"/>
      <point x="361" y="717" type="line"/>
      <point x="573" y="1371" type="line" smooth="yes"/>
      <point x="579" y="1389"/>
      <point x="582" y="1407"/>
      <point x="582" y="1418" type="curve" smooth="yes"/>
      <point x="582" y="1431"/>
      <point x="578" y="1438"/>
      <point x="571" y="1438" type="curve" smooth="yes"/>
      <point x="522" y="1438" type="line" smooth="yes"/>
      <point x="506" y="1438"/>
      <point x="492" y="1414"/>
      <point x="479" y="1371" type="curve" smooth="yes"/>
      <point x="324" y="882" type="line"/>
      <point x="168" y="1371" type="line" smooth="yes"/>
      <point x="153" y="1414"/>
      <point x="137" y="1438"/>
      <point x="123" y="1438" type="curve" smooth="yes"/>
      <point x="74" y="1438" type="line" smooth="yes"/>
      <point x="66" y="1438"/>
      <point x="62" y="1432"/>
      <point x="62" y="1420" type="curve" smooth="yes"/>
      <point x="62" y="1409"/>
      <point x="66" y="1391"/>
      <point x="73" y="1371" type="curve" smooth="yes"/>
      <point x="284" y="713" type="line"/>
      <point x="284" y="67" type="line" smooth="yes"/>
      <point x="284" y="24"/>
      <point x="292" y="0"/>
    </contour>
  </outline>
</glyph>
<glyph name="a" format="1">
  <advance width="691"/>
  <unicode hex="0061"/>
  <outline>
    <contour>
      <point x="289" y="-21" type="curve" smooth="yes"/>
      <point x="386" y="-21"/>
      <point x="479" y="62"/>
      <point x="526" y="238" type="curve" smooth="yes"/>
      <point x="528" y="245"/>
      <point x="529" y="252"/>
      <point x="530" y="252" type="curve" smooth="yes"/>
      <point x="533" y="252"/>
      <point x="535" y="245"/>
      <point x="536" y="224" type="curve" smooth="yes"/>
      <point x="537" y="206"/>
      <point x="545" y="96"/>
      <point x="549" y="52" type="curve" smooth="yes"/>
      <point x="552" y="12"/>
      <point x="558" y="-12"/>
      <point x="572" y="-12" type="curve" smooth="yes"/>
      <point x="578" y="-12" type="line" smooth="yes"/>
      <point x="590" y="-12"/>
      <point x="596" y="2"/>
      <point x="596" y="37" type="curve" smooth="yes"/>
      <point x="596" y="631" type="line" smooth="yes"/>
      <point x="596" y="929"/>
      <point x="546" y="1052"/>
      <point x="345" y="1052" type="curve" smooth="yes"/>
      <point x="207" y="1052"/>
      <point x="146" y="966"/>
      <point x="108" y="858" type="curve" smooth="yes"/>
      <point x="104" y="847"/>
      <point x="97" y="820"/>
      <point x="97" y="802" type="curve" smooth="yes"/>
      <point x="97" y="785"/>
      <point x="106" y="767"/>
      <point x="111" y="765" type="curve" smooth="yes"/>
      <point x="128" y="759" type="line"/>
      <point x="131" y="758"/>
      <point x="132" y="757"/>
      <point x="134" y="757" type="curve" smooth="yes"/>
      <point x="142" y="757"/>
      <point x="153" y="789"/>
      <point x="160" y="811" type="curve" smooth="yes"/>
      <point x="191" y="904"/>
      <point x="238" y="990"/>
      <point x="346" y="990" type="curve" smooth="yes"/>
      <point x="513" y="990"/>
      <point x="517" y="823"/>
      <point x="517" y="668" type="curve" smooth="yes"/>
      <point x="517" y="608" type="line"/>
      <point x="457" y="593"/>
      <point x="93" y="584"/>
      <point x="93" y="238" type="curve" smooth="yes"/>
      <point x="93" y="92"/>
      <point x="156" y="-21"/>
    </contour>
    <contour>
      <point x="289" y="43" type="curve" smooth="yes"/>
      <point x="197" y="43"/>
      <point x="173" y="131"/>
      <point x="172" y="251" type="curve" smooth="yes"/>
      <point x="171" y="383"/>
      <point x="250" y="500"/>
      <point x="450" y="540" type="curve"/>
      <point x="452" y="541"/>
      <point x="513" y="551"/>
      <point x="514" y="551" type="curve" smooth="yes"/>
      <point x="519" y="551"/>
      <point x="519" y="507"/>
      <point x="519" y="493" type="curve" smooth="yes"/>
      <point x="519" y="245"/>
      <point x="414" y="43"/>
    </contour>
  </outline>
</glyph>
<glyph name="f" format="1">
  <advance width="505"/>
  <unicode hex="0066"/>
  <outline>
    <contour>
      <point x="192" y="0" type="curve" smooth="yes"/>
      <point x="218" y="0" type="line" smooth="yes"/>
      <point x="232" y="0"/>
      <point x="243" y="34"/>
      <point x="243" y="77" type="curve" smooth="yes"/>
      <point x="243" y="821" type="line" smooth="yes"/>
      <point x="243" y="841"/>
      <point x="245" y="858"/>
      <point x="252" y="858" type="curve" smooth="yes"/>
      <point x="386" y="858" type="line" smooth="yes"/>
      <point x="400" y="858"/>
      <point x="409" y="867"/>
      <point x="409" y="910" type="curve" smooth="yes"/>
      <point x="409" y="951" type="line" smooth="yes"/>
      <point x="409" y="994"/>
      <point x="400" y="1006"/>
      <point x="386" y="1006" type="curve" smooth="yes"/>
      <point x="247" y="1006" type="line" smooth="yes"/>
      <point x="245" y="1006"/>
      <point x="243" y="1009"/>
      <point x="243" y="1012" type="curve" smooth="yes"/>
      <point x="243" y="1090" type="line" smooth="yes"/>
      <point x="243" y="1229"/>
      <point x="261" y="1310"/>
      <point x="337" y="1310" type="curve" smooth="yes"/>
      <point x="360" y="1310"/>
      <point x="401" y="1280"/>
      <point x="403" y="1280" type="curve" smooth="yes"/>
      <point x="414" y="1280"/>
      <point x="416" y="1294"/>
      <point x="416" y="1331" type="curve" smooth="yes"/>
      <point x="416" y="1375" type="line" smooth="yes"/>
      <point x="416" y="1403"/>
      <point x="410" y="1431"/>
      <point x="400" y="1438" type="curve"/>
      <point x="394" y="1441"/>
      <point x="352" y="1475"/>
      <point x="313" y="1475" type="curve" smooth="yes"/>
      <point x="240" y="1475"/>
      <point x="166" y="1381"/>
      <point x="166" y="1041" type="curve" smooth="yes"/>
      <point x="166" y="1019"/>
      <point x="166" y="1006"/>
      <point x="158" y="1006" type="curve" smooth="yes"/>
      <point x="108" y="1006" type="line" smooth="yes"/>
      <point x="93" y="1006"/>
      <point x="84" y="988"/>
      <point x="84" y="945" type="curve" smooth="yes"/>
      <point x="84" y="910" type="line" smooth="yes"/>
      <point x="84" y="867"/>
      <point x="93" y="858"/>
      <point x="108" y="858" type="curve" smooth="yes"/>
      <point x="158" y="858" type="line" smooth="yes"/>
      <point x="166" y="858"/>
      <point x="166" y="841"/>
      <point x="166" y="821" type="curve" smooth="yes"/>
      <point x="166" y="77" type="line" smooth="yes"/>
      <point x="166" y="34"/>
      <point x="178" y="0"/>
    </contour>
  </outline>
</glyph>
<glyph name="h" format="1">
  <advance width="619"/>
  <unicode hex="0068"/>
  <outline>
    <contour>
      <point x="124" y="0" type="curve" smooth="yes"/>
      <point x="157" y="0" type="line" smooth="yes"/>
      <point x="172" y="0"/>
      <point x="179" y="9"/>
      <point x="179" y="52" type="curve" smooth="yes"/>
      <point x="179" y="646" type="line" smooth="yes"/>
      <point x="179" y="779"/>
      <point x="266" y="990"/>
      <point x="354" y="990" type="curve" smooth="yes"/>
      <point x="426" y="990"/>
      <point x="449" y="891"/>
      <point x="449" y="666" type="curve" smooth="yes"/>
      <point x="449" y="52" type="line" smooth="yes"/>
      <point x="449" y="9"/>
      <point x="456" y="0"/>
      <point x="471" y="0" type="curve" smooth="yes"/>
      <point x="503" y="0" type="line" smooth="yes"/>
      <point x="516" y="0"/>
      <point x="526" y="9"/>
      <point x="526" y="52" type="curve" smooth="yes"/>
      <point x="526" y="632" type="line" smooth="yes"/>
      <point x="526" y="968"/>
      <point x="474" y="1052"/>
      <point x="359" y="1052" type="curve" smooth="yes"/>
      <point x="297" y="1052"/>
      <point x="227" y="993"/>
      <point x="183" y="848" type="curve"/>
      <point x="179" y="854" type="line"/>
      <point x="179" y="1382" type="line" smooth="yes"/>
      <point x="179" y="1425"/>
      <point x="171" y="1438"/>
      <point x="156" y="1438" type="curve" smooth="yes"/>
      <point x="124" y="1438" type="line" smooth="yes"/>
      <point x="110" y="1438"/>
      <point x="102" y="1425"/>
      <point x="102" y="1382" type="curve" smooth="yes"/>
      <point x="102" y="52" type="line" smooth="yes"/>
      <point x="102" y="9"/>
      <point x="110" y="0"/>
    </contour>
  </outline>
</glyph>
<glyph name="k" format="1">
  <advance width="674"/>
  <unicode hex="006B"/>
  <outline>
    <contour>
      <point x="124" y="0" type="curve" smooth="yes"/>
      <point x="156" y="0" type="line" smooth="yes"/>
      <point x="171" y="0"/>
      <point x="179" y="24"/>
      <point x="179" y="67" type="curve" smooth="yes"/>
      <point x="179" y="122"/>
      <point x="179" y="280"/>
      <point x="179" y="288" type="curve" smooth="yes"/>
      <point x="179" y="299"/>
      <point x="181" y="305"/>
      <point x="183" y="310" type="curve"/>
      <point x="184" y="312"/>
      <point x="254" y="429"/>
      <point x="277" y="468" type="curve"/>
      <point x="280" y="472"/>
      <point x="281" y="473"/>
      <point x="282" y="473" type="curve" smooth="yes"/>
      <point x="286" y="473"/>
      <point x="287" y="468"/>
      <point x="288" y="465" type="curve"/>
      <point x="472" y="67" type="line" smooth="yes"/>
      <point x="488" y="31"/>
      <point x="503" y="0"/>
      <point x="516" y="0" type="curve" smooth="yes"/>
      <point x="574" y="0" type="line" smooth="yes"/>
      <point x="581" y="0"/>
      <point x="586" y="9"/>
      <point x="586" y="22" type="curve" smooth="yes"/>
      <point x="586" y="34"/>
      <point x="582" y="50"/>
      <point x="574" y="67" type="curve" smooth="yes"/>
      <point x="347" y="548" type="line"/>
      <point x="347" y="549"/>
      <point x="344" y="552"/>
      <point x="344" y="556" type="curve" smooth="yes"/>
      <point x="344" y="559"/>
      <point x="345" y="561"/>
      <point x="347" y="564" type="curve"/>
      <point x="552" y="939" type="line" smooth="yes"/>
      <point x="563" y="958"/>
      <point x="568" y="976"/>
      <point x="568" y="989" type="curve" smooth="yes"/>
      <point x="568" y="999"/>
      <point x="564" y="1006"/>
      <point x="558" y="1006" type="curve" smooth="yes"/>
      <point x="491" y="1006" type="line" smooth="yes"/>
      <point x="477" y="1006"/>
      <point x="460" y="975"/>
      <point x="439" y="939" type="curve" smooth="yes"/>
      <point x="184" y="474" type="line" smooth="yes"/>
      <point x="183" y="472"/>
      <point x="182" y="472"/>
      <point x="182" y="472" type="curve"/>
      <point x="180" y="472"/>
      <point x="179" y="475"/>
      <point x="179" y="481" type="curve" smooth="yes"/>
      <point x="179" y="1371" type="line" smooth="yes"/>
      <point x="179" y="1414"/>
      <point x="171" y="1438"/>
      <point x="156" y="1438" type="curve" smooth="yes"/>
      <point x="124" y="1438" type="line" smooth="yes"/>
      <point x="110" y="1438"/>
      <point x="102" y="1414"/>
      <point x="102" y="1371" type="curve" smooth="yes"/>
      <point x="102" y="67" type="line" smooth="yes"/>
      <point x="102" y="24"/>
      <point x="110" y="0"/>
    </contour>
  </outline>
</glyph>
<glyph name="n" format="1">
  <advance width="618"/>
  <unicode hex="006E"/>
  <outline>
    <contour>
      <point x="122" y="0" type="curve" smooth="yes"/>
      <point x="154" y="0" type="line" smooth="yes"/>
      <point x="168" y="0"/>
      <point x="177" y="9"/>
      <point x="177" y="52" type="curve" smooth="yes"/>
      <point x="177" y="656" type="line" smooth="yes"/>
      <point x="177" y="789"/>
      <point x="249" y="989"/>
      <point x="345" y="989" type="curve" smooth="yes"/>
      <point x="408" y="989"/>
      <point x="444" y="921"/>
      <point x="444" y="696" type="curve" smooth="yes"/>
      <point x="444" y="52" type="line" smooth="yes"/>
      <point x="444" y="9"/>
      <point x="452" y="0"/>
      <point x="467" y="0" type="curve" smooth="yes"/>
      <point x="500" y="0" type="line" smooth="yes"/>
      <point x="514" y="0"/>
      <point x="523" y="9"/>
      <point x="523" y="52" type="curve" smooth="yes"/>
      <point x="523" y="642" type="line" smooth="yes"/>
      <point x="523" y="978"/>
      <point x="451" y="1052"/>
      <point x="346" y="1052" type="curve" smooth="yes"/>
      <point x="281" y="1052"/>
      <point x="208" y="997"/>
      <point x="172" y="826" type="curve"/>
      <point x="171" y="819"/>
      <point x="169" y="811"/>
      <point x="167" y="811" type="curve" smooth="yes"/>
      <point x="163" y="811"/>
      <point x="162" y="816"/>
      <point x="161" y="824" type="curve"/>
      <point x="152" y="952" type="line" smooth="yes"/>
      <point x="147" y="1002"/>
      <point x="141" y="1006"/>
      <point x="125" y="1006" type="curve" smooth="yes"/>
      <point x="119" y="1006" type="line" smooth="yes"/>
      <point x="104" y="1006"/>
      <point x="98" y="982"/>
      <point x="98" y="939" type="curve" smooth="yes"/>
      <point x="98" y="52" type="line" smooth="yes"/>
      <point x="98" y="9"/>
      <point x="107" y="0"/>
    </contour>
  </outline>
</glyph>
<glyph name="r" format="1">
  <advance width="439"/>
  <unicode hex="0072"/>
  <outline>
    <contour>
      <point x="122" y="0" type="curve" smooth="yes"/>
      <point x="154" y="0" type="line" smooth="yes"/>
      <point x="168" y="0"/>
      <point x="177" y="24"/>
      <point x="177" y="67" type="curve" smooth="yes"/>
      <point x="177" y="606" type="line" smooth="yes"/>
      <point x="177" y="739"/>
      <point x="237" y="863"/>
      <point x="304" y="863" type="curve" smooth="yes"/>
      <point x="333" y="863" type="line" smooth="yes"/>
      <point x="349" y="863"/>
      <point x="357" y="883"/>
      <point x="357" y="926" type="curve" smooth="yes"/>
      <point x="357" y="985" type="line" smooth="yes"/>
      <point x="357" y="1028"/>
      <point x="349" y="1052"/>
      <point x="333" y="1052" type="curve" smooth="yes"/>
      <point x="318" y="1052" type="line" smooth="yes"/>
      <point x="254" y="1052"/>
      <point x="199" y="936"/>
      <point x="173" y="833" type="curve" smooth="yes"/>
      <point x="171" y="826"/>
      <point x="169" y="811"/>
      <point x="167" y="811" type="curve" smooth="yes"/>
      <point x="163" y="811"/>
      <point x="162" y="823"/>
      <point x="161" y="832" type="curve" smooth="yes"/>
      <point x="152" y="942" type="line" smooth="yes"/>
      <point x="147" y="992"/>
      <point x="141" y="1006"/>
      <point x="125" y="1006" type="curve" smooth="yes"/>
      <point x="119" y="1006" type="line" smooth="yes"/>
      <point x="104" y="1006"/>
      <point x="98" y="972"/>
      <point x="98" y="929" type="curve" smooth="yes"/>
      <point x="98" y="67" type="line" smooth="yes"/>
      <point x="98" y="24"/>
      <point x="107" y="0"/>
    </contour>
  </outline>
</glyph>
<glyph name="s" format="1">
  <advance width="644"/>
  <unicode hex="0073"/>
  <outline>
    <contour>
      <point x="312" y="-41" type="curve" smooth="yes"/>
      <point x="509" y="-41"/>
      <point x="554" y="95"/>
      <point x="554" y="307" type="curve" smooth="yes"/>
      <point x="554" y="604"/>
      <point x="448" y="600"/>
      <point x="318" y="619" type="curve" smooth="yes"/>
      <point x="173" y="640"/>
      <point x="170" y="659"/>
      <point x="170" y="755" type="curve" smooth="yes"/>
      <point x="170" y="859"/>
      <point x="217" y="900"/>
      <point x="325" y="900" type="curve" smooth="yes"/>
      <point x="391" y="900"/>
      <point x="448" y="871"/>
      <point x="481" y="840" type="curve" smooth="yes"/>
      <point x="495" y="828"/>
      <point x="505" y="823"/>
      <point x="513" y="862" type="curve" smooth="yes"/>
      <point x="515" y="871" type="line" smooth="yes"/>
      <point x="522" y="905"/>
      <point x="515" y="955"/>
      <point x="504" y="968" type="curve" smooth="yes"/>
      <point x="448" y="1033"/>
      <point x="382" y="1053"/>
      <point x="306" y="1053" type="curve" smooth="yes"/>
      <point x="227" y="1053"/>
      <point x="94" y="1032"/>
      <point x="94" y="732" type="curve" smooth="yes"/>
      <point x="94" y="503"/>
      <point x="180" y="459"/>
      <point x="305" y="448" type="curve" smooth="yes"/>
      <point x="487" y="432"/>
      <point x="487" y="395"/>
      <point x="487" y="299" type="curve" smooth="yes"/>
      <point x="487" y="185"/>
      <point x="445" y="111"/>
      <point x="328" y="111" type="curve" smooth="yes"/>
      <point x="249" y="111"/>
      <point x="191" y="137"/>
      <point x="131" y="204" type="curve" smooth="yes"/>
      <point x="117" y="219"/>
      <point x="105" y="207"/>
      <point x="99" y="166" type="curve" smooth="yes"/>
      <point x="97" y="150" type="line" smooth="yes"/>
      <point x="93" y="116"/>
      <point x="98" y="72"/>
      <point x="109" y="59" type="curve" smooth="yes"/>
      <point x="173" y="-18"/>
      <point x="246" y="-41"/>
    </contour>
  </outline>
</glyph>
<glyph name="t" format="1">
  <advance width="525"/>
  <unicode hex="0074"/>
  <outline>
    <contour>
      <point x="311" y="-41" type="curve" smooth="yes"/>
      <point x="367" y="-41"/>
      <point x="389" y="-26"/>
      <point x="416" y="5" type="curve" smooth="yes"/>
      <point x="430" y="21"/>
      <point x="437" y="48"/>
      <point x="437" y="90" type="curve" smooth="yes"/>
      <point x="437" y="103" type="line" smooth="yes"/>
      <point x="437" y="138"/>
      <point x="426" y="193"/>
      <point x="406" y="174" type="curve"/>
      <point x="387" y="154"/>
      <point x="357" y="131"/>
      <point x="323" y="131" type="curve" smooth="yes"/>
      <point x="270" y="131"/>
      <point x="242" y="187"/>
      <point x="242" y="325" type="curve" smooth="yes"/>
      <point x="242" y="821" type="line" smooth="yes"/>
      <point x="242" y="841"/>
      <point x="244" y="848"/>
      <point x="252" y="848" type="curve" smooth="yes"/>
      <point x="383" y="848" type="line" smooth="yes"/>
      <point x="399" y="848"/>
      <point x="406" y="872"/>
      <point x="406" y="915" type="curve" smooth="yes"/>
      <point x="406" y="939" type="line" smooth="yes"/>
      <point x="406" y="982"/>
      <point x="399" y="1006"/>
      <point x="383" y="1006" type="curve" smooth="yes"/>
      <point x="252" y="1006" type="line" smooth="yes"/>
      <point x="244" y="1006"/>
      <point x="242" y="1013"/>
      <point x="242" y="1033" type="curve" smooth="yes"/>
      <point x="242" y="1408" type="line" smooth="yes"/>
      <point x="242" y="1451"/>
      <point x="234" y="1475"/>
      <point x="219" y="1475" type="curve" smooth="yes"/>
      <point x="194" y="1475" type="line" smooth="yes"/>
      <point x="180" y="1475"/>
      <point x="173" y="1450"/>
      <point x="172" y="1408" type="curve" smooth="yes"/>
      <point x="165" y="1033" type="line"/>
      <point x="165" y="1013"/>
      <point x="161" y="1006"/>
      <point x="155" y="1006" type="curve" smooth="yes"/>
      <point x="106" y="1006" type="line" smooth="yes"/>
      <point x="91" y="1006"/>
      <point x="83" y="982"/>
      <point x="83" y="939" type="curve" smooth="yes"/>
      <point x="83" y="915" type="line" smooth="yes"/>
      <point x="83" y="872"/>
      <point x="91" y="848"/>
      <point x="106" y="848" type="curve" smooth="yes"/>
      <point x="155" y="848" type="line" smooth="yes"/>
      <point x="161" y="848"/>
      <point x="165" y="841"/>
      <point x="165" y="821" type="curve" smooth="yes"/>
      <point x="165" y="370" type="line" smooth="yes"/>
      <point x="165" y="143"/>
      <point x="214" y="-41"/>
    </contour>
  </outline>
</glyph>
<glyph name="y" format="1">
  <advance width="643"/>
  <unicode hex="0079"/>
  <outline>
    <contour>
      <point x="240" y="-694" type="curve" smooth="yes"/>
      <point x="313" y="-686"/>
      <point x="339" y="-513"/>
      <point x="379" y="-249" type="curve" smooth="yes"/>
      <point x="556" y="936" type="line" smooth="yes"/>
      <point x="557" y="943"/>
      <point x="558" y="950"/>
      <point x="558" y="957" type="curve" smooth="yes"/>
      <point x="558" y="983"/>
      <point x="552" y="1006"/>
      <point x="542" y="1006" type="curve" smooth="yes"/>
      <point x="510" y="1006" type="line" smooth="yes"/>
      <point x="495" y="1006"/>
      <point x="481" y="977"/>
      <point x="477" y="934" type="curve" smooth="yes"/>
      <point x="347" y="14" type="line" smooth="yes"/>
      <point x="346" y="7"/>
      <point x="345" y="3"/>
      <point x="343" y="3" type="curve" smooth="yes"/>
      <point x="341" y="3"/>
      <point x="340" y="6"/>
      <point x="338" y="12" type="curve"/>
      <point x="166" y="937" type="line" smooth="yes"/>
      <point x="160" y="979"/>
      <point x="145" y="1006"/>
      <point x="129" y="1006" type="curve" smooth="yes"/>
      <point x="95" y="1006" type="line" smooth="yes"/>
      <point x="86" y="1006"/>
      <point x="79" y="985"/>
      <point x="79" y="962" type="curve" smooth="yes"/>
      <point x="79" y="955"/>
      <point x="80" y="947"/>
      <point x="81" y="940" type="curve"/>
      <point x="292" y="-115" type="line" smooth="yes"/>
      <point x="299" y="-154"/>
      <point x="302" y="-167"/>
      <point x="302" y="-198" type="curve" smooth="yes"/>
      <point x="302" y="-349"/>
      <point x="276" y="-539"/>
      <point x="238" y="-539" type="curve" smooth="yes"/>
      <point x="229" y="-539" type="line" smooth="yes"/>
      <point x="210" y="-539"/>
      <point x="184" y="-507"/>
      <point x="164" y="-476" type="curve" smooth="yes"/>
      <point x="162" y="-473"/>
      <point x="160" y="-472"/>
      <point x="158" y="-472" type="curve" smooth="yes"/>
      <point x="153" y="-472"/>
      <point x="147" y="-481"/>
      <point x="142" y="-504" type="curve" smooth="yes"/>
      <point x="135" y="-545" type="line" smooth="yes"/>
      <point x="134" y="-552"/>
      <point x="133" y="-560"/>
      <point x="133" y="-567" type="curve" smooth="yes"/>
      <point x="133" y="-581"/>
      <point x="135" y="-595"/>
      <point x="139" y="-606" type="curve" smooth="yes"/>
      <point x="161" y="-662"/>
      <point x="194" y="-699"/>
    </contour>
  </outline>
</glyph>
<glyph name="dieresis" format="1">
  <advance width="242"/>
  <unicode hex="00A8"/>
  <outline>
    <contour>
      <point x="100" y="0" type="curve" smooth="yes"/>
      <point x="143" y="0" type="line" smooth="yes"/>
      <point x="158" y="0"/>
      <point x="170" y="34"/>
      <point x="170" y="77" type="curve" smooth="yes"/>
      <point x="170" y="173" type="line" smooth="yes"/>
      <point x="170" y="216"/>
      <point x="158" y="250"/>
      <point x="143" y="250" type="curve" smooth="yes"/>
      <point x="100" y="250" type="line" smooth="yes"/>
      <point x="85" y="250"/>
      <point x="73" y="216"/>
      <point x="73" y="173" type="curve" smooth="yes"/>
      <point x="73" y="77" type="line" smooth="yes"/>
      <point x="73" y="34"/>
      <point x="85" y="0"/>
    </contour>
    <contour>
      <point x="304" y="0" type="curve" smooth="yes"/>
      <point x="347" y="0" type="line" smooth="yes"/>
      <point x="362" y="0"/>
      <point x="373" y="34"/>
      <point x="373" y="77" type="curve" smooth="yes"/>
      <point x="373" y="173" type="line" smooth="yes"/>
      <point x="373" y="216"/>
      <point x="362" y="250"/>
      <point x="347" y="250" type="curve" smooth="yes"/>
      <point x="304" y="250" type="line" smooth="yes"/>
      <point x="290" y="250"/>
      <point x="279" y="216"/>
      <point x="279" y="173" type="curve" smooth="yes"/>
      <point x="279" y="77" type="line" smooth="yes"/>
      <point x="279" y="34"/>
      <point x="290" y="0"/>
    </contour>
  </outline>
</glyph>
<glyph name="cedilla" format="1">
  <advance width="245"/>
  <unicode hex="00B8"/>
  <outline>
    <contour>
      <point x="137" y="-642" type="curve" smooth="yes"/>
      <point x="186" y="-642"/>
      <point x="212" y="-548"/>
      <point x="212" y="-370" type="curve" smooth="yes"/>
      <point x="212" y="-259"/>
      <point x="186" y="-156"/>
      <point x="149" y="-156" type="curve" smooth="yes"/>
      <point x="143" y="-156"/>
      <point x="131" y="-156"/>
      <point x="124" y="-156" type="curve"/>
      <point x="120" y="-156"/>
      <point x="119" y="-163"/>
      <point x="119" y="-173" type="curve" smooth="yes"/>
      <point x="119" y="-187"/>
      <point x="119" y="-234"/>
      <point x="119" y="-244" type="curve" smooth="yes"/>
      <point x="119" y="-255"/>
      <point x="124" y="-254"/>
      <point x="124" y="-254" type="curve" smooth="yes"/>
      <point x="127" y="-254"/>
      <point x="133" y="-254"/>
      <point x="137" y="-254" type="curve" smooth="yes"/>
      <point x="155" y="-254"/>
      <point x="165" y="-331"/>
      <point x="165" y="-407" type="curve" smooth="yes"/>
      <point x="165" y="-517"/>
      <point x="156" y="-557"/>
      <point x="141" y="-557" type="curve" smooth="yes"/>
      <point x="123" y="-557"/>
      <point x="114" y="-514"/>
      <point x="114" y="-461" type="curve" smooth="yes"/>
      <point x="114" y="-444"/>
      <point x="115" y="-427"/>
      <point x="117" y="-409" type="curve" smooth="yes"/>
      <point x="119" y="-389"/>
      <point x="114" y="-373"/>
      <point x="107" y="-373" type="curve" smooth="yes"/>
      <point x="85" y="-373" type="line" smooth="yes"/>
      <point x="78" y="-373"/>
      <point x="72" y="-389"/>
      <point x="71" y="-408" type="curve" smooth="yes"/>
      <point x="69" y="-427"/>
      <point x="68" y="-446"/>
      <point x="68" y="-464" type="curve" smooth="yes"/>
      <point x="68" y="-572"/>
      <point x="98" y="-642"/>
    </contour>
  </outline>
</glyph>
